<?xml version="1.0" encoding="UTF-8" standalone="no"?>
<!-- Created with Inkscape (http://www.inkscape.org/) -->

<svg
   xmlns:dc="http://purl.org/dc/elements/1.1/"
   xmlns:cc="http://creativecommons.org/ns#"
   xmlns:rdf="http://www.w3.org/1999/02/22-rdf-syntax-ns#"
   xmlns:svg="http://www.w3.org/2000/svg"
   xmlns="http://www.w3.org/2000/svg"
   xmlns:sodipodi="http://sodipodi.sourceforge.net/DTD/sodipodi-0.dtd"
   xmlns:inkscape="http://www.inkscape.org/namespaces/inkscape"
   width="59.297119mm"
   height="34.479553mm"
   viewBox="0 0 59.297119 34.479553"
   version="1.1"
   id="svg8"
   inkscape:version="0.92.2 (5c3e80d, 2017-08-06)"
   sodipodi:docname="logo.svg"
   inkscape:export-filename="D:\Documents\projects\web\tumult\docs\assets\logo.png"
   inkscape:export-xdpi="191.5338"
   inkscape:export-ydpi="191.5338">
  <sodipodi:namedview
     id="base"
     pagecolor="#ffffff"
     bordercolor="#666666"
     borderopacity="1.0"
     inkscape:pageopacity="0.0"
     inkscape:pageshadow="2"
     inkscape:zoom="0.70000001"
     inkscape:cx="-168.37066"
     inkscape:cy="126.49423"
     inkscape:document-units="mm"
     inkscape:current-layer="layer1"
     showgrid="false"
     inkscape:window-width="1440"
     inkscape:window-height="878"
     inkscape:window-x="1592"
     inkscape:window-y="-8"
     inkscape:window-maximized="1" />
  <defs
     id="defs2" />
  <metadata
     id="metadata5">
    <rdf:RDF>
      <cc:Work
         rdf:about="">
        <dc:format>image/svg+xml</dc:format>
        <dc:type
           rdf:resource="http://purl.org/dc/dcmitype/StillImage" />
        <dc:title></dc:title>
      </cc:Work>
    </rdf:RDF>
  </metadata>
  <g
     id="layer1"
     inkscape:groupmode="layer"
     inkscape:label="Layer 1"
     transform="translate(-78.723588,-50.705339)">
    <path
       inkscape:connector-curvature="0"
       id="path3814-6"
       inkscape:label="Triangle"
       style="fill:none;fill-opacity:1;stroke:#000000;stroke-width:0.52916682;stroke-opacity:0.05882353"
       d="m 85.796457,73.198933 h 13.22917 l -6.61459,11.456793 z" />
    <path
       inkscape:connector-curvature="0"
       id="path3814-6-1"
       inkscape:label="Triangle"
       style="fill:none;fill-opacity:1;stroke:#000000;stroke-width:0.52916682;stroke-opacity:0.05882353"
       d="m 92.41102,61.742137 h 13.22917 L 99.0256,73.198929 Z" />
    <path
       inkscape:connector-curvature="0"
       id="path3814-6-8"
       inkscape:label="Triangle"
       style="fill:none;fill-opacity:1;stroke:#000000;stroke-width:0.52916682;stroke-opacity:0.05882353"
       d="M 85.79644,73.19893 H 99.02561 L 92.41102,61.742137 Z" />
    <path
       inkscape:connector-curvature="0"
       id="path3814-6-17"
       inkscape:label="Triangle"
       style="fill:none;fill-opacity:1;stroke:#000000;stroke-width:0.52916682;stroke-opacity:0.05882353"
       d="m 118.86937,61.742137 h 13.22917 l -6.61459,11.456794 z" />
    <path
       inkscape:connector-curvature="0"
       id="path3814-6-19"
       inkscape:label="Triangle"
       style="fill:none;fill-opacity:1;stroke:#000000;stroke-width:0.52916682;stroke-opacity:0.05882353"
       d="m 112.25479,73.198932 h 13.22917 l -6.61459,11.456794 z" />
    <path
       inkscape:connector-curvature="0"
       id="path3814-6-7"
       inkscape:label="Triangle"
       style="fill:none;fill-opacity:1;stroke:#000000;stroke-width:0.52916682;stroke-opacity:0.05882353"
       d="m 105.64021,84.655725 h 13.22917 l -6.61459,-11.456793 z" />
    <path
       inkscape:connector-curvature="0"
       id="path3814-6-6"
       inkscape:label="Triangle"
       style="fill:none;fill-opacity:1;stroke:#000000;stroke-width:0.52916682;stroke-opacity:0.05882353"
       d="m 112.25479,73.198932 h 13.22917 l -6.61459,-11.456793 z" />
    <path
       style="fill:#000000;fill-opacity:0.98994978;stroke:none;stroke-width:0.71428573;stroke-opacity:0.18090455"
       d="m 351.88909,231.68054 c 0.67936,-1.7016 22.28559,-38.66567 22.48455,-38.46671 0.38193,0.38193 22.39641,38.52651 22.39641,38.80635 0,0.1412 -10.15179,0.25672 -22.55953,0.25672 -12.40774,0 -22.45238,-0.26836 -22.32143,-0.59636 z"
       id="path4928"
       inkscape:connector-curvature="0"
       transform="scale(0.26458333)" />
    <path
       style="fill:#000000;fill-opacity:0.98994978;stroke:none;stroke-width:0.71428573;stroke-opacity:0.18090455"
       d="m 388.11272,211.23979 -11.15165,-19.32003 11.37804,-0.19648 c 6.25792,-0.10807 16.30449,-0.10807 22.3257,0 l 10.94765,0.19648 -11.17404,19.32003 -11.17405,19.32003 z"
       id="path4930"
       inkscape:connector-curvature="0"
       transform="scale(0.26458333)" />
    <path
       style="fill:#000000;fill-opacity:0.98994978;stroke:none;stroke-width:0.71428573;stroke-opacity:0.18090455"
       d="m 401.77005,232.03165 c 0,-0.25965 22.04701,-38.46843 22.40121,-38.82263 0.1785,-0.17849 21.82832,36.88412 22.47974,38.48336 0.13095,0.32149 -9.91369,0.58452 -22.32143,0.58452 -12.40774,0 -22.55952,-0.11036 -22.55952,-0.24525 z"
       id="path4932"
       inkscape:connector-curvature="0"
       transform="scale(0.26458333)" />
    <path
       style="fill:#000000;fill-opacity:0.98994978;stroke:none;stroke-width:0.71428573;stroke-opacity:0.18090455"
       d="m 438.11272,211.23979 -11.15165,-19.32003 11.37804,-0.19648 c 6.25792,-0.10807 16.30449,-0.10807 22.3257,0 l 10.94765,0.19648 -11.17404,19.32003 -11.17405,19.32003 z"
       id="path4934"
       inkscape:connector-curvature="0"
       transform="scale(0.26458333)" />
    <path
       style="fill:#000000;fill-opacity:0.98994978;stroke:none;stroke-width:0.71428573;stroke-opacity:0.18090455"
       d="m 451.77005,232.03165 c 0,-0.25965 22.04701,-38.46843 22.40121,-38.82263 0.1785,-0.17849 21.82832,36.88412 22.47974,38.48336 0.13095,0.32149 -9.91369,0.58452 -22.32143,0.58452 -12.40774,0 -22.55952,-0.11036 -22.55952,-0.24525 z"
       id="path4936"
       inkscape:connector-curvature="0"
       transform="scale(0.26458333)" />
    <path
       style="fill:#000000;fill-opacity:0.98994978;stroke:none;stroke-width:0.71428573;stroke-opacity:0.18090455"
       d="m 488.11556,211.29158 -11.15449,-19.37182 11.37804,-0.19648 c 6.25792,-0.10807 16.31363,-0.10807 22.346,0 l 10.96797,0.19648 -10.34413,17.85714 c -5.68928,9.82143 -10.72546,18.53875 -11.19152,19.37182 -0.76814,1.37303 -1.89047,-0.29684 -12.00187,-17.85714 z"
       id="path4938"
       inkscape:connector-curvature="0"
       transform="scale(0.26458333)" />
    <path
       style="fill:#000000;fill-opacity:0.98994978;stroke:none;stroke-width:0.71428573;stroke-opacity:0.18090455"
       d="m 413.14818,254.62886 c -6.06154,-10.48214 -11.12813,-19.31733 -11.25909,-19.63377 -0.13095,-0.31643 9.91369,-0.57533 22.32143,-0.57533 12.40774,0 22.55953,0.12304 22.55953,0.27342 0,0.31821 -21.87729,38.27053 -22.31036,38.7036 -0.15978,0.15979 -5.24996,-8.28578 -11.31151,-18.76792 z"
       id="path4940"
       inkscape:connector-curvature="0"
       transform="scale(0.26458333)" />
    <path
       style="fill:#000000;fill-opacity:0.98994978;stroke:none;stroke-width:0.71428573;stroke-opacity:0.18090455"
       d="m 378.71988,271.69786 c 1.08831,-1.8899 6.15122,-10.67438 11.25092,-19.52106 l 9.27219,-16.08489 10.77032,18.65483 c 5.92368,10.26016 11.01123,19.04464 11.30568,19.52107 0.4152,0.6718 -4.52758,0.86624 -22.02124,0.86624 h -22.5566 z"
       id="path4942"
       inkscape:connector-curvature="0"
       transform="scale(0.26458333)" />
    <path
       style="fill:#000000;fill-opacity:0.98994978;stroke:none;stroke-width:0.71428573;stroke-opacity:0.18090455"
       d="m 388.05898,297.74768 -11.21107,-19.39935 11.43462,-0.19648 c 6.28904,-0.10806 16.38344,-0.10806 22.43199,0 l 10.99736,0.19648 -10.73685,18.57143 c -5.90528,10.21429 -10.95469,18.94399 -11.22092,19.39934 -0.27178,0.46485 -5.40056,-7.67946 -11.69513,-18.57142 z"
       id="path4944"
       inkscape:connector-curvature="0"
       transform="scale(0.26458333)" />
    <path
       style="fill:#000000;fill-opacity:0.98994978;stroke:none;stroke-width:0.71428573;stroke-opacity:0.18090455"
       d="m 352.57268,317.09833 c 0.97474,-1.83671 21.40019,-37.24302 21.61662,-37.47112 0.0781,-0.0823 4.61389,7.63195 10.07949,17.14286 5.4656,9.5109 10.54606,18.33719 11.28991,19.61398 l 1.35245,2.32142 h -22.59568 -22.59569 z"
       id="path4946"
       inkscape:connector-curvature="0"
       transform="scale(0.26458333)" />
    <circle
       style="fill:none;fill-opacity:1;stroke:#f5ffff;stroke-width:0.40000001;stroke-miterlimit:4;stroke-dasharray:0.8, 0.4;stroke-dashoffset:0;stroke-opacity:0.2745098"
       id="path4848"
       cx="99.087799"
       cy="73.022095"
       r="10.016369" />
    <circle
       style="fill:none;fill-opacity:1;stroke:#ffffff;stroke-width:0.40000001;stroke-miterlimit:4;stroke-dasharray:0.8, 0.4;stroke-dashoffset:0;stroke-opacity:0.2745098"
       id="path4848-8"
       cx="112.24137"
       cy="72.999634"
       r="10.016369" />
    <circle
       style="fill:none;fill-opacity:1;stroke:#ffffff;stroke-width:0.40000001;stroke-miterlimit:4;stroke-dasharray:0.8, 0.4;stroke-dashoffset:0;stroke-opacity:0.2745098"
       id="path4848-89"
       cx="105.56609"
       cy="61.802814"
       r="10.016369" />
    <path
       inkscape:connector-curvature="0"
       id="path3814-6-17-5"
       inkscape:label="Triangle"
       style="fill:none;fill-opacity:1;stroke:#000000;stroke-width:0.52916682;stroke-opacity:0.05882353"
       d="M 79.18186,84.655727 H 92.41103 L 85.79644,73.19893 Z" />
    <circle
       style="fill:#282828;fill-opacity:1;stroke:none;stroke-width:0.40000001;stroke-miterlimit:4;stroke-dasharray:0.79999999, 0.39999999;stroke-dashoffset:0;stroke-opacity:0.2745098"
       id="path4981"
       cx="105.62003"
       cy="69.089951"
       r="0.73499119" />
  </g>
</svg>
